HIERARCHY
ROOT Hips
{
    OFFSET 0.000000 0.000000 0.000000
    CHANNELS 6 Xposition Yposition Zposition Zrotation Yrotation Xrotation
    JOINT Chest
    {
        OFFSET 0.000000 1.634758 -0.000000
        CHANNELS 3 Zrotation Yrotation Xrotation
        JOINT Chest2
        {
            OFFSET 0.000000 2.197341 0.000000
            CHANNELS 3 Zrotation Yrotation Xrotation
            JOINT Neck
            {
                OFFSET 0.000000 0.961544 0.000000
                CHANNELS 3 Zrotation Yrotation Xrotation
                JOINT Head
                {
                    OFFSET 0.000000 0.632542 -0.032565
                    CHANNELS 3 Zrotation Yrotation Xrotation
                    End Site
                    {
                        OFFSET -0.000001 0.439502 2.922845
                    }
                }
            }
            JOINT LeftCollar
            {
                OFFSET 0.167536 0.778237 -0.168280
                CHANNELS 3 Zrotation Yrotation Xrotation
                JOINT LeftShoulder
                {
                    OFFSET 0.831514 -0.002900 0.006458
                    CHANNELS 3 Zrotation Yrotation Xrotation
                    JOINT LeftElbow
                    {
                        OFFSET 2.272872 -0.026639 0.059314
                        CHANNELS 3 Zrotation Yrotation Xrotation
                        JOINT LeftWrist
                        {
                            OFFSET 2.081982 -0.024402 0.054333
                            CHANNELS 3 Zrotation Yrotation Xrotation
                            JOINT LeftHandThumb1
                            {
                                OFFSET 0.218903 -0.128645 0.283837
                                CHANNELS 3 Zrotation Yrotation Xrotation
                                JOINT LeftHandThumb2
                                {
                                    OFFSET 0.137157 -0.025101 0.077902
                                    CHANNELS 3 Zrotation Yrotation Xrotation
                                    JOINT LeftHandThumb3
                                    {
                                        OFFSET 0.158232 -0.089941 -0.020314
                                        CHANNELS 3 Zrotation Yrotation Xrotation
                                        End Site
                                        {
                                            OFFSET 0.245599 -0.082026 0.069206
                                        }
                                    }
                                }
                            }
                            JOINT LeftHandFore1
                            {
                                OFFSET 0.767340 -0.016076 0.196678
                                CHANNELS 3 Zrotation Yrotation Xrotation
                                JOINT LeftHandFore2
                                {
                                    OFFSET 0.101154 -0.191429 -0.010872
                                    CHANNELS 3 Zrotation Yrotation Xrotation
                                    JOINT LeftHandFore3
                                    {
                                        OFFSET -0.120352 -0.047693 0.001901
                                        CHANNELS 3 Zrotation Yrotation Xrotation
                                        End Site
                                        {
                                            OFFSET -0.146356 0.126092 -0.006896
                                        }
                                    }
                                }
                            }
                            JOINT LeftHandMiddle1
                            {
                                OFFSET 0.709887 -0.008320 0.018526
                                CHANNELS 3 Zrotation Yrotation Xrotation
                                JOINT LeftHandMiddle2
                                {
                                    OFFSET 0.063598 -0.236580 0.006996
                                    CHANNELS 3 Zrotation Yrotation Xrotation
                                    JOINT LeftHandMiddle3
                                    {
                                        OFFSET -0.146204 -0.002444 -0.001223
                                        CHANNELS 3 Zrotation Yrotation Xrotation
                                        End Site
                                        {
                                            OFFSET -0.086772 0.219290 0.003599
                                        }
                                    }
                                }
                            }
                            JOINT LeftHandRing1
                            {
                                OFFSET 0.743817 -0.005823 -0.153668
                                CHANNELS 3 Zrotation Yrotation Xrotation
                                JOINT LeftHandRing2
                                {
                                    OFFSET 0.057737 -0.348425 -0.000069
                                    CHANNELS 3 Zrotation Yrotation Xrotation
                                    JOINT LeftHandRing3
                                    {
                                        OFFSET -0.131198 0.037272 0.001822
                                        CHANNELS 3 Zrotation Yrotation Xrotation
                                        End Site
                                        {
                                            OFFSET -0.044074 0.111637 -0.003784
                                        }
                                    }
                                }
                            }
                            JOINT LeftHandLittle1
                            {
                                OFFSET 0.689408 -0.053302 -0.308304
                                CHANNELS 3 Zrotation Yrotation Xrotation
                                JOINT LeftHandLittle2
                                {
                                    OFFSET 0.041486 -0.190577 0.003662
                                    CHANNELS 3 Zrotation Yrotation Xrotation
                                    JOINT LeftHandLittle3
                                    {
                                        OFFSET -0.115407 0.020761 -0.027320
                                        CHANNELS 3 Zrotation Yrotation Xrotation
                                        End Site
                                        {
                                            OFFSET -0.117784 0.145626 -0.034767
                                        }
                                    }
                                }
                            }
                        }
                    }
                }
            }
            JOINT RightCollar
            {
                OFFSET -0.167536 0.778237 -0.168280
                CHANNELS 3 Zrotation Yrotation Xrotation
                JOINT RightShoulder
                {
                    OFFSET -0.831514 -0.002900 0.006457
                    CHANNELS 3 Zrotation Yrotation Xrotation
                    JOINT RightElbow
                    {
                        OFFSET -2.272872 -0.026639 0.059313
                        CHANNELS 3 Zrotation Yrotation Xrotation
                        JOINT RightWrist
                        {
                            OFFSET -2.081982 -0.024402 0.054331
                            CHANNELS 3 Zrotation Yrotation Xrotation
                            JOINT RightHandThumb1
                            {
                                OFFSET -0.218911 -0.128571 0.283837
                                CHANNELS 3 Zrotation Yrotation Xrotation
                                JOINT RightHandThumb2
                                {
                                    OFFSET -0.137157 -0.025101 0.077902
                                    CHANNELS 3 Zrotation Yrotation Xrotation
                                    JOINT RightHandThumb3
                                    {
                                        OFFSET -0.150255 -0.104139 -0.010849
                                        CHANNELS 3 Zrotation Yrotation Xrotation
                                        End Site
                                        {
                                            OFFSET -0.239384 -0.093127 0.076545
                                        }
                                    }
                                }
                            }
                            JOINT RightHandFore1
                            {
                                OFFSET -0.767344 -0.015991 0.196679
                                CHANNELS 3 Zrotation Yrotation Xrotation
                                JOINT RightHandFore2
                                {
                                    OFFSET -0.101199 -0.191409 -0.010870
                                    CHANNELS 3 Zrotation Yrotation Xrotation
                                    JOINT RightHandFore3
                                    {
                                        OFFSET 0.119960 -0.046610 -0.014113
                                        CHANNELS 3 Zrotation Yrotation Xrotation
                                        End Site
                                        {
                                            OFFSET 0.146939 0.124402 0.017317
                                        }
                                    }
                                }
                            }
                            JOINT RightHandMiddle1
                            {
                                OFFSET -0.709887 -0.008302 0.018525
                                CHANNELS 3 Zrotation Yrotation Xrotation
                                JOINT RightHandMiddle2
                                {
                                    OFFSET -0.063573 -0.236583 0.006996
                                    CHANNELS 3 Zrotation Yrotation Xrotation
                                    JOINT RightHandMiddle3
                                    {
                                        OFFSET 0.145580 -0.002625 -0.013559
                                        CHANNELS 3 Zrotation Yrotation Xrotation
                                        End Site
                                        {
                                            OFFSET 0.085606 0.218925 -0.019338
                                        }
                                    }
                                }
                            }
                            JOINT RightHandRing1
                            {
                                OFFSET -0.743819 -0.005785 -0.153669
                                CHANNELS 3 Zrotation Yrotation Xrotation
                                JOINT RightHandRing2
                                {
                                    OFFSET -0.057762 -0.348420 -0.000066
                                    CHANNELS 3 Zrotation Yrotation Xrotation
                                    JOINT RightHandRing3
                                    {
                                        OFFSET 0.129585 0.037568 -0.020035
                                        CHANNELS 3 Zrotation Yrotation Xrotation
                                        End Site
                                        {
                                            OFFSET 0.044335 0.111600 0.000059
                                        }
                                    }
                                }
                            }
                            JOINT RightHandLittle1
                            {
                                OFFSET -0.689403 -0.053298 -0.308303
                                CHANNELS 3 Zrotation Yrotation Xrotation
                                JOINT RightHandLittle2
                                {
                                    OFFSET -0.041493 -0.190578 0.003662
                                    CHANNELS 3 Zrotation Yrotation Xrotation
                                    JOINT RightHandLittle3
                                    {
                                        OFFSET 0.118597 0.020530 -0.002987
                                        CHANNELS 3 Zrotation Yrotation Xrotation
                                        End Site
                                        {
                                            OFFSET 0.123091 0.145267 0.005904
                                        }
                                    }
                                }
                            }
                        }
                    }
                }
            }
        }
    }
    JOINT LeftHip
    {
        OFFSET 0.685143 0.673822 -0.044491
        CHANNELS 3 Zrotation Yrotation Xrotation
        JOINT LeftKnee
        {
            OFFSET 0.085364 -3.750208 0.017676
            CHANNELS 3 Zrotation Yrotation Xrotation
            JOINT LeftAnkle
            {
                OFFSET 0.094583 -4.155206 0.019585
                CHANNELS 3 Zrotation Yrotation Xrotation
                JOINT LeftToe
                {
                    OFFSET -0.000000 -0.395925 0.621478
                    CHANNELS 3 Zrotation Yrotation Xrotation
                    End Site
                    {
                        OFFSET -0.000000 -0.077878 0.321152
                    }
                }
            }
        }
    }
    JOINT RightHip
    {
        OFFSET -0.685143 0.673822 -0.044492
        CHANNELS 3 Zrotation Yrotation Xrotation
        JOINT RightKnee
        {
            OFFSET -0.085364 -3.750208 0.017677
            CHANNELS 3 Zrotation Yrotation Xrotation
            JOINT RightAnkle
            {
                OFFSET -0.094583 -4.155206 0.019585
                CHANNELS 3 Zrotation Yrotation Xrotation
                JOINT RightToe
                {
                    OFFSET -0.000000 -0.395925 0.621478
                    CHANNELS 3 Zrotation Yrotation Xrotation
                    End Site
                    {
                        OFFSET -0.000000 -0.077878 0.321152
                    }
                }
            }
        }
    }
}
MOTION
Frames: 5
Frame Time: 0.033333
-12.008954 8.329455 -8.127084 -175.404007 -27.953703 178.552460 11.830679 12.751925 -6.936866 -0.540006 -1.922237 -4.068171 -1.466343 -2.770910 5.713413 0.458912 -8.842898 13.032792 -11.367138 2.768374 -0.367102 -46.930073 25.021488 -0.719081 0.297423 -46.347111 -0.702150 -18.515102 -3.743474 -4.258497 0.000001 -0.000009 -0.000002 8.824479 -17.608532 -1.823034 1.204103 8.712944 3.515397 68.351456 -4.084291 -9.025599 91.639992 -5.774836 -3.850000 63.342506 5.415204 -3.922996 64.348633 0.534740 -1.096989 100.219711 2.091799 0.132599 68.112686 3.915854 -2.912866 63.730537 7.686005 3.349337 108.172279 0.867579 0.653253 49.350616 4.354074 0.749304 57.829819 16.553047 10.060928 102.594307 12.480046 5.706352 47.903809 5.507844 -2.947073 -3.768749 11.593734 -0.159503 -17.203510 13.412574 -3.974309 -0.680823 60.382950 -1.177456 -2.848190 0.230685 -10.407147 -0.000005 0.000007 -0.000012 -19.952137 4.532855 -24.118425 4.970502 0.192520 0.929828 -51.408279 2.912455 -4.841270 -86.050659 1.038199 -5.905148 -65.303574 12.139219 -5.057884 -57.941376 -1.880221 4.871157 -95.119034 -6.150307 -3.830388 -69.790955 -1.627132 -1.112190 -50.764347 -8.587822 8.171410 -104.848930 -9.385057 -10.481698 -50.127102 2.139342 -7.093804 -47.206276 -18.515842 13.666909 -98.973587 -5.030666 -21.099369 -49.613911 0.986277 -7.715996 14.867870 17.477779 -13.968676 0.040152 0.321094 14.252973 -6.577558 -10.924893 -2.109904 -0.000002 -0.000009 0.000003 -21.493298 -38.465439 1.890546 -0.075298 -0.436750 19.565641 11.312123 20.378738 -2.158025 0.000002 0.000012 0.000008
-12.032014 8.332825 -8.241294 -173.739624 -30.410007 175.643387 13.197559 12.627014 -5.295655 0.546338 -1.984358 -3.667602 -2.227752 -1.794099 5.341637 0.375737 -7.259052 12.435876 -11.667234 4.045178 -0.400500 -48.339657 27.342190 -1.916831 0.239264 -42.730625 -0.618935 -16.288364 -3.715426 -4.431437 -0.000001 0.000003 0.000017 8.869667 -16.849159 -1.903469 1.121107 8.222481 3.310347 62.754780 -2.628325 -8.534285 90.874573 -5.793101 -3.793935 63.342506 5.415202 -3.922998 63.815224 1.339758 -1.030841 99.152245 2.081184 0.103242 68.112679 3.915851 -2.912868 66.278320 7.299163 4.082016 106.801735 0.819126 0.599954 49.350616 4.354071 0.749306 62.289310 15.042059 11.490992 101.502617 12.495963 5.503771 47.903816 5.507837 -2.947072 -2.607322 12.988173 -0.132130 -13.782129 20.478712 -5.566628 -2.021268 75.634018 -2.611340 -15.629763 -1.412973 -10.143247 -0.000007 0.000012 -0.000014 -22.066507 3.581986 -26.378302 3.241445 1.312225 0.022887 -55.795715 0.394605 -5.987033 -83.388794 1.582423 -5.491073 -65.985718 12.500463 -5.772789 -67.319839 -3.695193 5.776103 -91.575844 -5.842066 -3.878256 -70.264366 -1.680816 -1.027138 -62.244156 -9.731393 11.475235 -101.981705 -9.377209 -10.391548 -50.469322 2.011986 -6.935644 -57.451550 -16.499819 17.646973 -96.959473 -4.943789 -20.652000 -50.201878 0.883607 -7.429236 16.820204 15.329906 -13.074515 0.049781 0.356858 15.880304 -6.711695 -11.975457 -2.984125 -0.000004 -0.000015 -0.000000 -21.641233 -38.165512 5.420878 -0.072377 -0.428443 19.178715 9.645019 16.659037 -0.554544 0.000001 0.000005 -0.000009
-12.141855 8.335754 -8.345822 -173.211731 -35.229153 172.665222 13.583485 11.294357 -3.539219 0.451337 -1.770645 -3.807059 -2.591046 -1.653702 5.291419 0.341118 -6.596402 12.378036 -11.860606 4.738110 -0.359317 -48.930965 27.831081 -2.991170 0.169828 -37.298656 -0.510536 -10.917846 -3.570760 -4.940955 -0.000008 -0.000001 0.000019 8.865728 -16.136145 -1.989882 1.041534 7.738312 3.111627 57.295300 -1.382397 -8.000403 90.120644 -5.810536 -3.739043 63.342506 5.415199 -3.922998 63.298279 2.000995 -0.975716 98.100845 2.070258 0.075244 68.112686 3.915851 -2.912868 68.360229 6.892755 4.700399 105.451828 0.771086 0.549842 49.350628 4.354069 0.749306 65.870216 13.638371 12.695761 100.429352 12.493288 5.303090 47.903809 5.507837 -2.947072 -1.855078 12.403028 -0.096594 -5.476799 27.792866 -9.806975 -171.604630 85.025459 -172.308716 -28.455091 -3.291075 -8.868991 -0.000002 0.000012 -0.000013 -23.553089 2.807523 -28.123072 1.970391 2.101731 -0.682464 -58.976948 -1.445060 -6.830149 -81.438736 1.974885 -5.187032 -66.486198 12.763666 -6.296232 -74.213898 -5.026984 6.458354 -88.143196 -5.539697 -3.914047 -70.611145 -1.714655 -0.962551 -70.695084 -10.555226 13.938146 -99.206200 -9.317483 -10.307170 -50.719730 1.918661 -6.819860 -64.583931 -14.630010 20.603735 -95.007690 -4.858838 -20.209391 -50.634701 0.833107 -7.194080 16.893635 10.493782 -12.266749 0.059610 0.389758 17.388756 -6.626893 -12.748921 -3.791918 0.000003 0.000009 0.000000 -23.112602 -37.722149 8.318296 -0.081213 -0.453056 20.327662 5.714766 8.708365 4.254617 0.000007 0.000019 -0.000006
-12.265324 8.341392 -8.438040 -172.224884 -39.094120 169.719086 14.216790 9.625355 -1.816376 0.533774 -1.512141 -4.440912 -2.239377 -1.189679 5.515576 0.268877 -5.208107 12.737212 -12.062583 5.842873 -0.309477 -51.272453 31.623646 -4.896883 0.150208 -35.453350 -0.477275 -4.364395 -3.238887 -5.545052 -0.000003 0.000010 0.000007 8.795918 -15.511450 -2.082933 0.968738 7.282751 2.927953 52.215710 -0.466736 -7.433838 89.412758 -5.826472 -3.688044 63.342499 5.415204 -3.922997 62.820377 2.446764 -0.936864 97.113686 2.059600 0.049795 68.112679 3.915851 -2.912868 69.754555 6.476773 5.142559 104.184395 0.725760 0.504931 49.350624 4.354066 0.749304 68.207169 12.424488 13.559774 99.424179 12.466615 5.112153 47.903809 5.507844 -2.947073 -1.370641 11.764824 -0.073686 16.512260 48.085979 -6.217071 -176.205292 77.647774 -176.953278 -41.344414 -4.623705 -6.881491 -0.000004 0.000004 -0.000003 -24.082542 2.413670 -28.937569 1.476004 2.400935 -0.965408 -60.204136 -2.157769 -7.158763 -80.681847 2.125790 -5.068893 -66.680626 12.865500 -6.499329 -76.895386 -5.543614 6.727911 -85.147575 -5.273311 -3.936618 -70.746742 -1.716868 -0.933145 -73.984695 -10.870160 14.904527 -96.787010 -9.188283 -10.245154 -50.816864 1.882433 -6.774930 -66.961601 -13.067843 21.869518 -93.304047 -4.784326 -19.815748 -50.808460 0.863017 -7.052505 17.070549 5.634356 -11.641461 0.073588 0.431862 19.338020 -6.610850 -12.603898 -4.963258 0.000005 0.000020 -0.000005 -23.697412 -37.446678 9.578849 -0.090950 -0.478515 21.525219 0.235882 1.780272 12.101444 -0.234273 -1.255300 -3.058669
-12.379447 8.352464 -8.537444 -169.922043 -42.654072 165.702271 15.315680 8.068375 0.020767 1.096647 -1.294400 -4.957425 -1.363487 -0.897420 5.775414 0.221497 -4.294110 13.099194 -12.374320 6.752773 -0.279060 -54.517353 34.337929 -7.088480 0.130529 -33.413021 -0.442226 1.395964 -2.722741 -6.603868 -0.000003 0.000003 0.000005 8.642803 -15.016660 -2.183716 0.905761 6.878288 2.767512 47.751469 -0.003149 -6.846672 88.785423 -5.840342 -3.643712 63.342506 5.415205 -3.922993 62.403923 2.605411 -0.919702 96.238869 2.049847 0.027945 68.112686 3.915856 -2.912867 70.241882 6.060946 5.346626 103.061211 0.685452 0.466868 49.350620 4.354065 0.749303 68.943626 11.479772 13.966260 98.536575 12.410604 4.938378 47.903816 5.507845 -2.947075 -1.399774 9.630349 -0.063138 50.333862 57.959625 15.381318 -177.596237 67.314903 -178.406647 -55.947239 -6.100296 -6.479287 0.000000 0.000009 -0.000010 -20.805630 2.046837 -27.580612 2.776678 1.892370 -0.249781 -60.085545 -2.045789 -7.120665 -81.914970 1.968283 -5.219045 -66.581718 12.757493 -6.296809 -72.040756 -5.180536 6.288576 -78.466011 -4.755110 -3.879374 -64.741653 -1.112375 -0.769306 -69.225937 -10.203162 14.087698 -89.817085 -8.532326 -10.002493 -45.192265 2.422017 -5.692576 -62.162708 -11.249099 20.840549 -87.093018 -4.342157 -19.167345 -45.666435 0.532576 -5.526976 17.984201 1.642850 -10.986229 0.090332 0.476898 21.449030 -6.559144 -13.302898 -6.061465 0.000001 0.000009 -0.000000 -23.545305 -37.143715 11.678340 -0.088650 -0.472645 21.248262 -5.657445 -2.485595 21.425238 -0.501348 -3.984314 -6.453036
